<svg width="918" height="220" viewBox="0 0 918 220" fill="none" xmlns="http://www.w3.org/2000/svg">
<path d="M281 170.33V49.3377H301.179V87.2208C301.179 89.3903 301.011 91.7267 301.011 94.0631H301.347C304.206 88.5559 308.074 84.5506 313.118 81.8804C317.995 79.3771 323.208 78.0421 328.925 78.0421C336.156 78.0421 342.21 79.7109 347.087 82.7149C351.795 85.7188 355.495 89.8909 358.017 95.2313C360.371 100.572 361.717 106.413 361.717 112.754V170.33H341.537V118.261C341.537 111.92 339.688 106.58 336.324 102.407C332.961 98.4021 328.085 96.2326 321.695 96.2326C315.305 96.2326 310.26 98.569 306.56 102.908C302.861 107.414 301.179 112.754 301.179 119.096V170.33H281Z" fill="white"/>
<path d="M407.103 172.666C399.031 172.666 391.8 170.664 385.578 166.658C379.188 162.653 374.311 156.979 370.78 149.803C367.081 142.794 365.399 134.616 365.399 125.604C365.399 116.593 367.081 108.415 370.78 101.239C374.48 94.23 379.356 88.5559 385.746 84.3837C391.968 80.3785 399.031 78.2089 406.934 78.2089C420.555 78.2089 430.477 83.3824 436.53 93.5624H436.867C436.699 91.226 436.699 89.2234 436.699 87.2208V80.0447H456.878V170.33H436.699V163.654C436.699 161.986 436.699 159.983 436.867 157.313H436.53C433.335 162.152 429.131 165.991 423.919 168.661C418.537 171.331 412.988 172.666 407.103 172.666ZM411.307 154.476C419.042 154.476 425.432 151.806 430.14 146.465C434.849 141.125 437.371 134.116 437.371 125.438C437.371 116.926 434.849 109.917 430.14 104.577C425.432 99.2365 419.042 96.3995 411.307 96.3995C406.094 96.3995 401.553 97.7346 397.854 100.238C393.986 102.908 390.959 106.413 388.773 110.752C386.587 115.091 385.578 120.097 385.578 125.604C385.578 131.112 386.587 135.951 388.773 140.29C390.959 144.629 393.986 148.134 397.854 150.637C401.721 153.307 406.262 154.476 411.307 154.476Z" fill="white"/>
<path d="M464.36 170.33V49.3377H484.539V170.33H464.36Z" fill="white"/>
<path d="M502.776 170.33V98.569H488.651V80.0447H502.776C502.776 72.8686 504.29 66.6938 507.316 61.6873C510.175 56.6807 514.043 52.6754 519.088 50.0053C524.132 47.3351 529.85 46 536.24 46C538.594 46 540.948 46.1669 543.134 46.5007C545.152 46.8344 547.338 47.3351 549.693 48.0026L549.188 65.1919C547.17 64.8581 545.489 64.5243 543.975 64.1905C542.294 64.0237 540.612 63.8568 538.93 63.8568C534.222 63.8568 530.354 65.3587 527.496 68.0289C524.637 70.6991 523.123 74.7043 522.955 80.0447H549.02V98.569H522.955V170.33H502.776Z" fill="white"/>
<path d="M591.855 173C582.606 173 574.534 170.997 567.64 166.825C560.745 162.653 555.364 156.979 551.665 149.636C547.797 142.46 545.947 134.283 545.947 124.937C545.947 115.758 547.797 107.581 551.665 100.405C555.364 93.2286 560.745 87.5545 567.64 83.5493C574.534 79.544 582.606 77.3745 591.855 77.3745C601.272 77.3745 609.511 79.7109 616.574 84.2168C623.637 88.8896 629.018 95.3982 632.886 103.909L614.724 111.92C612.37 107.08 609.343 103.075 605.644 100.071C601.776 97.067 597.236 95.565 591.855 95.565C586.474 95.565 581.765 96.9001 577.897 99.5703C574.03 102.24 571.003 105.745 568.985 110.084C566.967 114.59 565.958 119.597 565.958 124.937C565.958 130.611 566.967 135.618 568.985 140.124C571.003 144.629 574.03 148.134 577.897 150.804C581.765 153.474 586.474 154.643 591.855 154.643C597.236 154.643 601.776 153.141 605.644 150.137C609.343 147.133 612.37 142.961 614.724 137.954L633.054 145.798C629.186 154.476 623.805 161.318 616.742 165.991C609.68 170.664 601.272 173 591.855 173Z" fill="white"/>
<path d="M680.89 172.833C671.641 172.833 663.569 170.83 656.507 166.658C649.444 162.486 644.063 156.812 640.195 149.636C636.159 142.46 634.31 134.283 634.31 125.104C634.31 116.092 636.159 107.915 640.195 100.739C644.231 93.5624 649.612 87.8883 656.675 83.7162C663.569 79.544 671.641 77.3745 680.89 77.3745C689.97 77.3745 698.042 79.544 705.105 83.5493C711.999 87.7214 717.38 93.3955 721.416 100.572C725.452 107.748 727.47 115.925 727.47 124.937C727.47 134.116 725.452 142.293 721.416 149.469C717.38 156.812 711.999 162.486 704.937 166.658C697.874 170.83 689.97 172.833 680.89 172.833ZM680.89 154.643C686.103 154.643 690.643 153.307 694.679 150.637C698.547 147.967 701.573 144.463 703.76 139.957C705.777 135.451 706.955 130.444 706.955 124.937C706.955 119.597 705.777 114.59 703.76 110.084C701.573 105.745 698.547 102.24 694.679 99.5703C690.643 96.9001 686.103 95.565 680.89 95.565C675.509 95.565 670.968 96.9001 667.101 99.5703C663.065 102.24 660.038 105.912 658.02 110.251C655.834 114.757 654.825 119.763 654.825 125.104C654.825 130.444 655.834 135.451 658.02 139.957C660.038 144.463 663.065 147.967 667.101 150.637C670.968 153.307 675.509 154.643 680.89 154.643Z" fill="white"/>
<path d="M771.15 173C758.874 173 749.121 169.495 741.89 162.486C734.659 155.477 731.128 145.965 731.128 133.782V80.0447H751.307V132.447C751.307 139.122 752.988 144.463 756.52 148.468C759.883 152.64 764.759 154.643 771.15 154.643C777.54 154.643 782.416 152.64 785.948 148.468C789.311 144.463 791.16 139.122 791.16 132.447V80.0447H811.34V133.782C811.34 145.965 807.64 155.477 800.409 162.486C793.178 169.495 783.425 173 771.15 173Z" fill="white"/>
<path d="M817.396 170.33V80.0447H837.575V87.2208C837.575 89.3903 837.407 91.7267 837.407 94.0631H837.575C840.097 89.3903 843.461 85.7188 847.497 83.3824C851.532 81.046 856.073 79.7109 861.117 79.7109C862.799 79.7109 864.481 79.8778 865.994 80.0447V98.569H859.604C852.205 98.569 846.824 100.905 843.124 105.578C839.425 110.251 837.575 116.092 837.575 122.934V170.33H817.396Z" fill="white"/>
<path d="M877.642 170.33V98.569H864.021V80.0447H877.642V56.6807H897.821V80.0447H918V98.569H897.821V170.33H877.642Z" fill="white"/>
<g clip-path="url(#clip0_2085_4)">
<path d="M219.951 106.937L219.667 96.4853H151.552C155.26 84.0343 164.141 71.6111 178.038 59.4721C180.709 57.1364 189.958 50.088 193.296 47.5652L198.657 43.5177L179.486 24.0391L175.359 27.1856C174.894 27.539 163.913 35.9182 160.257 39.1133C139.776 57.0048 127.526 76.2789 123.77 96.4818H123.513V123.511H123.808C127.606 143.638 139.846 162.846 160.253 180.676C163.94 183.898 175.016 192.336 175.487 192.693L179.621 195.843L198.761 176.34L193.403 172.3C190.045 169.767 180.741 162.68 178.041 160.324C164.221 148.25 155.36 135.896 151.617 123.511H219.674L219.958 113.06C219.986 111.961 220.003 110.957 220.003 109.997C220.003 109.037 219.99 108.035 219.958 106.933L219.951 106.937Z" fill="#EB4310"/>
<path d="M96.4867 123.514V96.4847H96.2303C92.4773 76.2819 80.2237 57.0077 59.7432 39.1162C56.0873 35.9211 45.1055 27.5454 44.6411 27.1885L40.5138 24.042L21.3398 43.5172L26.7008 47.5647C30.038 50.084 39.2836 57.1324 41.9589 59.4715C55.8551 71.6106 64.7369 84.0338 68.4448 96.4847H0.332677L0.04505 106.933C0.0138615 108.024 0 109.029 0 110C0 110.97 0.0138615 111.975 0.04505 113.07L0.332677 123.514H68.3825C64.6364 135.899 55.7754 148.253 41.9554 160.327C39.2559 162.683 29.9513 169.773 26.5934 172.306L21.2359 176.347L40.3787 195.85L44.5129 192.703C44.9807 192.346 56.0561 183.905 59.7432 180.685C80.1509 162.856 92.3906 143.648 96.1887 123.518H96.4833L96.4867 123.514Z" fill="#EB4310"/>
<path d="M109.998 220C110.958 220 111.96 219.986 113.062 219.955L123.513 219.671V0.335917L113.072 0.0448288C110.917 -0.0175471 109.08 -0.0175471 106.928 0.0448288L96.4868 0.335917V219.671L106.938 219.955C108.037 219.982 109.042 220 110.002 220H109.998Z" fill="#EB4310"/>
</g>
<defs>
<clipPath id="clip0_2085_4">
<rect width="220" height="220" fill="white"/>
</clipPath>
</defs>
</svg>
